<?xml version="1.0" encoding="UTF-8" standalone="no"?>
<!-- Created with Inkscape (http://www.inkscape.org/) -->

<svg
   id="svg3004"
   version="1.1"
   inkscape:version="1.2.2 (732a01da63, 2022-12-09, custom)"
   width="652.5813"
   height="475.61896"
   xml:space="preserve"
   sodipodi:docname="abdlogo.svg"
   xmlns:inkscape="http://www.inkscape.org/namespaces/inkscape"
   xmlns:sodipodi="http://sodipodi.sourceforge.net/DTD/sodipodi-0.dtd"
   xmlns="http://www.w3.org/2000/svg"
   xmlns:svg="http://www.w3.org/2000/svg"
   xmlns:rdf="http://www.w3.org/1999/02/22-rdf-syntax-ns#"
   xmlns:cc="http://creativecommons.org/ns#"
   xmlns:dc="http://purl.org/dc/elements/1.1/"><metadata
     id="metadata3010"><rdf:RDF><cc:Work
         rdf:about=""><dc:format>image/svg+xml</dc:format><dc:type
           rdf:resource="http://purl.org/dc/dcmitype/StillImage" /></cc:Work></rdf:RDF></metadata><defs
     id="defs3008" /><sodipodi:namedview
     pagecolor="#ffffff"
     bordercolor="#666666"
     borderopacity="1"
     objecttolerance="10"
     gridtolerance="10"
     guidetolerance="10"
     inkscape:pageopacity="0"
     inkscape:pageshadow="2"
     inkscape:window-width="2560"
     inkscape:window-height="1389"
     id="namedview3006"
     showgrid="false"
     fit-margin-top="0"
     fit-margin-left="0"
     fit-margin-right="0"
     fit-margin-bottom="0"
     inkscape:zoom="1"
     inkscape:cx="270"
     inkscape:cy="296"
     inkscape:window-x="0"
     inkscape:window-y="24"
     inkscape:window-maximized="1"
     inkscape:current-layer="g3012"
     inkscape:showpageshadow="2"
     inkscape:pagecheckerboard="0"
     inkscape:deskcolor="#d1d1d1" /><g
     id="g3012"
     inkscape:groupmode="layer"
     inkscape:label="ABD VECTOR LOGO"
     transform="matrix(1.25,0,0,-1.25,-344.31757,886.25454)"><g
       id="g4097"
       transform="translate(-1.5809827e-5,141.56882)"><g
         id="g4093"><path
           inkscape:transform-center-y="-78.436485"
           transform="matrix(0.99056705,0,0,-0.83124365,-279.15679,403.23494)"
           d="M 561.91134,257.8008 823.41059,-195.12916 1084.9098,257.80081 z"
           inkscape:randomized="0"
           inkscape:rounded="0"
           inkscape:flatsided="true"
           sodipodi:arg2="3.6651914"
           sodipodi:arg1="2.6179939"
           sodipodi:r2="150.97665"
           sodipodi:r1="301.95331"
           sodipodi:cy="106.82415"
           sodipodi:cx="823.41058"
           sodipodi:sides="3"
           id="path3884"
           style="fill:#ffffff;fill-opacity:1;stroke:#000000;stroke-width:4.40812492;stroke-miterlimit:4;stroke-opacity:1;stroke-dasharray:none"
           sodipodi:type="star" /><path
           style="fill:#ff0000;fill-opacity:1;stroke:none"
           d="m 536.49912,524.83723 -30.65,-44.55 61.3,0 -30.65,44.55 z m -44.3,-64.35 -20.5,-29.8 129.575,0 -20.5,29.8 -88.575,0 z m -34.125,-49.6 -22.7,-33 202.225,0 -22.7,33 -156.825,0 z m -36.325,-52.8 -22.7,-33 274.87504,0 -22.7,33 -229.47504,0 z m -36.325,-52.8 -26,-37.8 354.125,0 -26,37.8 -302.125,0 z m -39.625,-57.6 -23.5,-34.15 428.37496,0 -23.5,34.15 -381.37496,0 z"
           id="path3878"
           inkscape:connector-curvature="0" /></g><g
         id="g4075"><path
           inkscape:connector-curvature="0"
           id="path3028"
           style="fill:#ffffff;fill-opacity:1;fill-rule:nonzero;stroke:#000000;stroke-width:4;stroke-miterlimit:4;stroke-opacity:1;stroke-dasharray:none"
           d="m 372.9869,313.04743 c 0,0 0,-43.74966 0,-43.74966 0,0 6.07512,0 6.07512,0 5.17984,0 8.8646,0.57333 11.05208,1.72 2.18748,1.14666 3.90307,3.14891 5.14455,6.00676 1.23929,2.85784 1.86113,7.49301 1.86113,13.90331 0,8.48311 -1.38703,14.29141 -4.15887,17.42269 -2.77404,3.13126 -7.36952,4.6969 -13.79084,4.6969 0,0 -6.18317,0 -6.18317,0 z m -24.69739,18.06438 c 0,0 36.7528,0 36.7528,0 7.24384,0 13.09624,-0.98348 17.5572,-2.94825 4.45876,-1.96476 8.14574,-4.78512 11.0587,-8.45885 2.91077,-3.67594 5.02327,-7.95168 6.33312,-12.82721 1.30985,-4.87773 1.96697,-10.04435 1.96697,-15.50202 0,-8.55148 -0.97466,-15.18449 -2.92179,-19.89684 -1.94934,-4.71236 -4.65282,-8.65952 -8.11045,-11.84372 -3.45764,-3.1842 -7.17106,-5.30553 -11.14028,-6.35958 -5.42461,-1.45539 -10.33984,-2.18308 -14.74347,-2.18308 0,0 -36.7528,0 -36.7528,0 0,0 0,80.01955 0,80.01955 z" /><path
           inkscape:connector-curvature="0"
           id="path3030"
           style="fill:#ffffff;fill-opacity:1;fill-rule:nonzero;stroke:#000000;stroke-width:4;stroke-miterlimit:4;stroke-opacity:1;stroke-dasharray:none"
           d="m 433.11347,313.32969 c 0,0 51.5117,0 51.5117,0 0,0 0,-13.26603 0,-13.26603 0,0 -32.17717,0 -32.17717,0 0,0 0,-9.87895 0,-9.87895 0,0 29.91913,0 29.91913,0 0,0 0,-12.70152 0,-12.70152 0,0 -29.91913,0 -29.91913,0 0,0 0,-12.27813 0,-12.27813 0,0 33.16507,0 33.16507,0 0,0 0,-14.1128 0,-14.1128 0,0 -52.4996,0 -52.4996,0 0,0 0,62.23743 0,62.23743 z" /><path
           inkscape:connector-curvature="0"
           id="path3032"
           style="fill:#ffffff;fill-opacity:1;fill-rule:nonzero;stroke:#000000;stroke-width:4;stroke-miterlimit:4;stroke-opacity:1;stroke-dasharray:none"
           d="m 490.68209,271.67931 c 0,0 18.34664,1.14666 18.34664,1.14666 0.39693,-2.97692 1.21061,-5.24379 2.43667,-6.80061 1.99342,-2.52265 4.84245,-3.78399 8.54705,-3.78399 2.76303,0 4.89317,0.6439 6.38825,1.93611 1.49507,1.28999 2.24481,2.78728 2.24481,4.49183 0,1.61636 -0.72107,3.06292 -2.16102,4.33968 -1.44214,1.27677 -4.74322,2.48298 -9.8988,3.61862 -8.44563,1.90081 -14.46562,4.42348 -18.06438,7.56798 -3.62743,3.14451 -5.44004,7.15564 -5.44004,12.02895 0,3.20185 0.92836,6.22507 2.78727,9.07409 1.85673,2.84682 4.65282,5.08502 8.3839,6.71461 3.73106,1.62959 8.84475,2.44547 15.34105,2.44547 7.97151,0 14.05104,-1.47963 18.23692,-4.43671 4.18533,-2.95927 6.67491,-7.66279 7.46875,-14.115 0,0 -18.06493,-1.06507 -18.06493,-1.06507 -0.48733,2.80933 -1.51051,4.85128 -3.07173,6.12805 -1.56123,1.27676 -3.71784,1.91624 -6.46763,1.91624 -2.26246,0 -3.96702,-0.4763 -5.11368,-1.42671 -1.14667,-0.95041 -1.7178,-2.10589 -1.7178,-3.46645 0,-0.99452 0.4719,-1.8876 1.41569,-2.68143 0.91513,-0.82472 3.07395,-1.58991 6.47425,-2.29995 8.41475,-1.81703 14.44356,-3.65389 18.08698,-5.51281 3.64065,-1.86113 6.28902,-4.16769 7.94727,-6.91968 1.65825,-2.7542 2.48737,-5.83476 2.48737,-9.23947 0,-4.00451 -1.10697,-7.69368 -3.3187,-11.07193 -2.21395,-3.37825 -5.30554,-5.9406 -9.27752,-7.68707 -3.97142,-1.74425 -8.97706,-2.61748 -15.0191,-2.61748 -10.61106,0 -17.95853,2.04195 -22.04242,6.13025 -4.08389,4.08829 -6.39706,9.28358 -6.93512,15.58582 z" /><path
           inkscape:connector-curvature="0"
           id="path3034"
           style="fill:#ffffff;fill-opacity:1;fill-rule:nonzero;stroke:#000000;stroke-width:4;stroke-miterlimit:4;stroke-opacity:1;stroke-dasharray:none"
           d="m 555.87274,313.32969 c 0,0 19.33453,0 19.33453,0 0,0 0,-62.23743 0,-62.23743 0,0 -19.33453,0 -19.33453,0 0,0 0,62.23743 0,62.23743 z" /><path
           inkscape:connector-curvature="0"
           id="path3036"
           style="fill:#ffffff;fill-opacity:1;fill-rule:nonzero;stroke:#000000;stroke-width:4;stroke-miterlimit:4;stroke-opacity:1;stroke-dasharray:none"
           d="m 618.36154,273.67274 c 0,0 0,12.98377 0,12.98377 0,0 29.63687,0 29.63687,0 0,0 0,-26.62909 0,-26.62909 -5.68922,-3.89423 -10.71911,-6.547 -15.08966,-7.95388 -4.37055,-1.40466 -9.5548,-2.1103 -15.55274,-2.1103 -7.38717,0 -13.40715,1.26133 -18.05997,3.7862 -4.65501,2.52266 -8.26259,6.2802 -10.82274,11.27259 -2.56236,4.99241 -3.84134,10.72132 -3.84134,17.18895 0,6.80502 1.40026,12.72578 4.20077,17.76007 2.80051,5.0343 6.90424,8.85578 12.309,11.46665 4.2162,2.01327 9.88999,3.02101 17.02135,3.02101 6.87559,0 12.01793,-0.62404 15.42705,-1.86773 3.40913,-1.2437 6.24051,-3.17318 8.48974,-5.78846 2.24922,-2.61527 3.93835,-5.93177 5.07177,-9.9473 0,0 -18.48776,-3.28344 -18.48776,-3.28344 -0.76517,2.32861 -2.05958,4.11035 -3.88322,5.34522 -1.82584,1.23487 -4.15224,1.8523 -6.97921,1.8523 -4.21621,0 -7.57681,-1.46861 -10.07962,-4.40143 -2.50502,-2.93281 -3.75534,-7.57459 -3.75534,-13.92315 0,-6.74768 1.26575,-11.56588 3.79722,-14.45679 2.53149,-2.89092 6.05969,-4.33528 10.5846,-4.33528 2.15,0 4.20077,0.31092 6.1523,0.93718 1.95154,0.62626 4.18532,1.69134 6.70358,3.19963 0,0 0,5.88328 0,5.88328 0,0 -12.84265,0 -12.84265,0 z" /><path
           inkscape:connector-curvature="0"
           id="path3038"
           style="fill:#ffffff;fill-opacity:1;fill-rule:nonzero;stroke:#000000;stroke-width:4;stroke-miterlimit:4;stroke-opacity:1;stroke-dasharray:none"
           d="m 657.76491,313.32969 c 0,0 17.93648,0 17.93648,0 0,0 23.55513,-34.53665 23.55513,-34.53665 0,0 0,34.53665 0,34.53665 0,0 18.06438,0 18.06438,0 0,0 0,-62.23743 0,-62.23743 0,0 -18.06438,0 -18.06438,0 0,0 -23.42724,34.34702 -23.42724,34.34702 0,0 0,-34.34702 0,-34.34702 0,0 -18.06437,0 -18.06437,0 0,0 0,62.23743 0,62.23743 z" /><path
           inkscape:connector-curvature="0"
           id="path3040"
           style="fill:#ffffff;fill-opacity:1;fill-rule:nonzero;stroke:#000000;stroke-width:4;stroke-miterlimit:4;stroke-opacity:1;stroke-dasharray:none"
           d="m 496.47386,348.89615 c 0,0 9.83926,0 9.83926,0 3.32092,0 5.66497,0.58435 7.02773,1.75527 1.36277,1.16872 2.04415,2.74097 2.04415,4.71455 0,1.83246 -0.67477,3.30549 -2.0243,4.41908 -1.34953,1.11358 -3.71123,1.67148 -7.08948,1.67148 0,0 -9.79736,0 -9.79736,0 0,0 0,-12.56038 0,-12.56038 z m 0,24.41513 c 0,0 8.42798,0 8.42798,0 3.02102,0 5.12471,0.5182 6.30886,1.55681 1.18195,1.03641 1.77513,2.5359 1.77513,4.49846 0,1.81922 -0.59318,3.24153 -1.77513,4.26471 -1.18415,1.02318 -3.24374,1.53477 -6.18096,1.53477 0,0 -8.55588,0 -8.55588,0 0,0 0,-11.85475 0,-11.85475 z m -19.33453,24.41514 c 0,0 36.08024,0 36.08024,0 6.01117,0 10.6287,-1.48626 13.84818,-4.45877 3.21949,-2.97251 4.82922,-6.65286 4.82922,-11.04106 0,-3.68255 -1.15107,-6.83809 -3.44881,-9.471 -1.53477,-1.75528 -3.77738,-3.14231 -6.73004,-4.16108 4.45876,-1.07609 7.74218,-2.92178 9.84588,-5.53927 2.10369,-2.61748 3.15553,-5.90752 3.15553,-9.86792 0,-3.22611 -0.75195,-6.12584 -2.25364,-8.70142 -1.50168,-2.57559 -3.55465,-4.61092 -6.16112,-6.1104 -1.61415,-0.93498 -4.05081,-1.61416 -7.30777,-2.03754 -4.33528,-0.56671 -7.21076,-0.84897 -8.62645,-0.84897 0,0 -33.23122,0 -33.23122,0 0,0 0,62.23743 0,62.23743 z" /><path
           inkscape:connector-curvature="0"
           id="path3042"
           style="fill:#ffffff;fill-opacity:1;fill-rule:nonzero;stroke:#000000;stroke-width:4;stroke-miterlimit:4;stroke-opacity:1;stroke-dasharray:none"
           d="m 536.58342,397.72642 c 0,0 21.36765,0 21.36765,0 0,0 12.53392,-20.94207 12.53392,-20.94207 0,0 12.61331,20.94207 12.61331,20.94207 0,0 21.22653,0 21.22653,0 0,0 -24.13288,-36.17066 -24.13288,-36.17066 0,0 0,-26.06677 0,-26.06677 0,0 -19.33453,0 -19.33453,0 0,0 0,26.06677 0,26.06677 0,0 -24.274,36.17066 -24.274,36.17066 z" /><path
           inkscape:connector-curvature="0"
           id="path3044"
           style="fill:#ffffff;fill-opacity:1;fill-rule:nonzero;stroke:#000000;stroke-width:4;stroke-miterlimit:4;stroke-opacity:1;stroke-dasharray:none"
           d="m 359.88846,394.14529 c 0,0 -23.86165,15.68064 -23.86165,15.68064 0,0 10.9727,-26.34462 10.9727,-26.34462 0,0 12.88895,10.66398 12.88895,10.66398 z m 14.25392,-9.5107 c 0,0 -20.58924,-17.03459 -20.58924,-17.03459 0,0 5.15779,-12.00028 5.15779,-12.00028 0,0 -18.47454,-15.28371 -18.47454,-15.28371 0,0 -26.40856,76.68098 -26.40856,76.68098 0,0 19.7094,16.30689 19.7094,16.30689 0,0 70.37874,-40.30305 70.37874,-40.30305 0,0 -18.91334,-15.64756 -18.91334,-15.64756 0,0 -10.86025,7.28132 -10.86025,7.28132 z" /><path
           inkscape:connector-curvature="0"
           id="path3046"
           style="fill:#ffffff;fill-opacity:1;fill-rule:nonzero;stroke:#000000;stroke-width:4;stroke-miterlimit:4;stroke-opacity:1;stroke-dasharray:none"
           d="m 372.43232,439.14857 c 0,0 49.43888,23.32139 49.43888,23.32139 0,0 6.13025,-12.99479 6.13025,-12.99479 0,0 -16.58695,-7.82378 -16.58695,-7.82378 0,0 18.69725,-39.63711 18.69725,-39.63711 0,0 -16.265,-7.67384 -16.265,-7.67384 0,0 -18.69725,39.63711 -18.69725,39.63711 0,0 -16.58695,-7.82377 -16.58695,-7.82377 0,0 -6.13023,12.99479 -6.13023,12.99479 z" /><path
           inkscape:connector-curvature="0"
           id="path3048"
           style="fill:#ffffff;fill-opacity:1;fill-rule:nonzero;stroke:#000000;stroke-width:4;stroke-miterlimit:4;stroke-opacity:1;stroke-dasharray:none"
           d="m 433.19175,466.36752 c 0,0 17.48223,4.13902 17.48223,4.13902 0,0 4.68809,-19.79541 4.68809,-19.79541 0,0 19.10079,4.52271 19.10079,4.52271 0,0 -4.68809,19.79541 -4.68809,19.79541 0,0 17.55939,4.15886 17.55939,4.15886 0,0 13.39614,-56.57246 13.39614,-56.57246 0,0 -17.55941,-4.15887 -17.55941,-4.15887 0,0 -5.42019,22.88478 -5.42019,22.88478 0,0 -19.10079,-4.5227 -19.10079,-4.5227 0,0 5.42019,-22.88479 5.42019,-22.88479 0,0 -17.48222,-4.13901 -17.48222,-4.13901 0,0 -13.39613,56.57246 -13.39613,56.57246 z" /><path
           inkscape:connector-curvature="0"
           id="path3050"
           style="fill:#ffffff;fill-opacity:1;fill-rule:nonzero;stroke:#000000;stroke-width:4;stroke-miterlimit:4;stroke-opacity:1;stroke-dasharray:none"
           d="m 501.84058,480.54977 c 0,0 17.94971,0.80487 17.94971,0.80487 0,0 1.96477,-43.78273 1.96477,-43.78273 0,0 28.0139,1.25692 28.0139,1.25692 0,0 0.64169,-14.30464 0.64169,-14.30464 0,0 -45.96361,-2.0618 -45.96361,-2.0618 0,0 -2.60646,58.08738 -2.60646,58.08738 z" /><path
           inkscape:connector-curvature="0"
           id="path3052"
           style="fill:#ffffff;fill-opacity:1;fill-rule:nonzero;stroke:#000000;stroke-width:4;stroke-miterlimit:4;stroke-opacity:1;stroke-dasharray:none"
           d="m 561.20252,482.01122 c 0,0 47.68361,-6.96158 47.68361,-6.96158 0,0 -1.79498,-12.29356 -1.79498,-12.29356 0,0 -29.85076,4.35732 -29.85076,4.35732 0,0 -1.33631,-9.15126 -1.33631,-9.15126 0,0 27.69196,-4.04199 27.69196,-4.04199 0,0 -1.71339,-11.7445 -1.71339,-11.7445 0,0 -27.69194,4.04199 -27.69194,4.04199 0,0 -1.65826,-11.35198 -1.65826,-11.35198 0,0 30.71517,-4.48301 30.71517,-4.48301 0,0 -1.90301,-13.04111 -1.90301,-13.04111 0,0 -48.54802,7.08727 -48.54802,7.08727 0,0 8.40593,57.58241 8.40593,57.58241 z" /><path
           inkscape:connector-curvature="0"
           id="path3054"
           style="fill:#ffffff;fill-opacity:1;fill-rule:nonzero;stroke:#000000;stroke-width:4;stroke-miterlimit:4;stroke-opacity:1;stroke-dasharray:none"
           d="m 622.72328,471.83072 c 0,0 50.86119,-20.0931 50.86119,-20.0931 0,0 -5.28127,-13.37187 -5.28127,-13.37187 0,0 -17.06325,6.74107 -17.06325,6.74107 0,0 -16.11063,-40.77716 -16.11063,-40.77716 0,0 -16.7325,6.61096 -16.7325,6.61096 0,0 16.11064,40.77715 16.11064,40.77715 0,0 -17.06545,6.74107 -17.06545,6.74107 0,0 5.28127,13.37188 5.28127,13.37188 z" /><path
           inkscape:connector-curvature="0"
           id="path3056"
           style="fill:#ffffff;fill-opacity:1;fill-rule:nonzero;stroke:#000000;stroke-width:4;stroke-miterlimit:4;stroke-opacity:1;stroke-dasharray:none"
           d="m 683.64866,445.87971 c 0,0 39.73634,-27.284 39.73634,-27.284 0,0 -7.03435,-10.24501 -7.03435,-10.24501 0,0 -24.876,17.07979 -24.876,17.07979 0,0 -5.23497,-7.62642 -5.23497,-7.62642 0,0 23.07442,-15.84272 23.07442,-15.84272 0,0 -6.71901,-9.78744 -6.71901,-9.78744 0,0 -23.07663,15.84271 -23.07663,15.84271 0,0 -6.49409,-9.45998 -6.49409,-9.45998 0,0 25.59488,-17.57373 25.59488,-17.57373 0,0 -7.45994,-10.86686 -7.45994,-10.86686 0,0 -40.45742,27.77795 -40.45742,27.77795 0,0 32.94677,47.98571 32.94677,47.98571 z" /><path
           inkscape:connector-curvature="0"
           id="path3058"
           style="fill:#ffffff;fill-opacity:1;fill-rule:nonzero;stroke:#000000;stroke-width:4;stroke-miterlimit:4;stroke-opacity:1;stroke-dasharray:none"
           d="m 702.86521,385.29557 c 0,0 12.50636,-11.71086 12.50636,-11.71086 -1.7674,-2.17425 -2.79058,-4.17429 -3.06842,-6.00014 -0.44434,-2.96149 0.51269,-5.69143 2.87107,-8.19424 1.75969,-1.86774 3.55356,-2.89534 5.3816,-3.08056 1.82805,-0.18523 3.31982,0.26682 4.47531,1.35615 1.09594,1.0342 1.62406,2.44107 1.58438,4.2184 -0.0419,1.77953 -1.3275,4.78292 -3.85787,9.01234 -4.11697,6.95 -6.25815,12.65466 -6.42463,17.11343 -0.18523,4.47639 1.37821,8.27472 4.68919,11.39497 2.17426,2.04966 4.82372,3.3562 7.94617,3.9185 3.12246,0.56231 6.42905,0.0992 9.92196,-1.38922 3.49292,-1.48845 7.3155,-4.43671 11.46885,-8.84365 5.09715,-5.40917 7.97704,-10.48206 8.64078,-15.21646 0.66374,-4.73275 -0.94489,-9.43848 -4.82371,-14.11335 0,0 -12.33988,11.64803 -12.33988,11.64803 1.59651,2.12352 2.33303,4.11806 2.21064,5.9836 -0.12238,1.86443 -1.05404,3.72114 -2.795,5.56904 -1.43333,1.52043 -2.83579,2.36168 -4.20517,2.52487 -1.37048,0.16207 -2.51715,-0.19186 -3.44109,-1.06287 -0.67477,-0.63508 -0.98128,-1.52375 -0.92174,-2.666 0.022,-1.14226 0.88205,-3.096 2.57779,-5.85901 4.15445,-6.87834 6.76752,-12.14638 7.83701,-15.80909 1.06948,-3.66051 1.20179,-6.93512 0.39582,-9.82162 -0.80598,-2.88431 -2.3639,-5.41579 -4.67377,-7.59225 -2.7145,-2.55795 -5.92406,-4.16547 -9.62977,-4.82261 -3.70571,-0.65713 -7.42024,-0.19405 -11.14249,1.38261 -3.72336,1.58108 -7.51727,4.42128 -11.38065,8.52061 -6.78406,7.19973 -10.09617,13.49095 -9.93628,18.87366 0.15987,5.38325 2.20401,10.27202 6.13354,14.66572 z" /></g></g></g></svg>
