<?xml version="1.0" encoding="UTF-8" standalone="no"?>
<!-- Created with Inkscape (http://www.inkscape.org/) -->

<svg
   xmlns:dc="http://purl.org/dc/elements/1.1/"
   xmlns:cc="http://creativecommons.org/ns#"
   xmlns:rdf="http://www.w3.org/1999/02/22-rdf-syntax-ns#"
   xmlns:svg="http://www.w3.org/2000/svg"
   xmlns="http://www.w3.org/2000/svg"
   xmlns:sodipodi="http://sodipodi.sourceforge.net/DTD/sodipodi-0.dtd"
   xmlns:inkscape="http://www.inkscape.org/namespaces/inkscape"
   id="svg3004"
   version="1.1"
   inkscape:version="0.48.4 r9939"
   width="432.64175"
   height="143.37625"
   xml:space="preserve"
   sodipodi:docname="MATTS LOGO #3_colored.eps"><metadata
     id="metadata3010"><rdf:RDF><cc:Work
         rdf:about=""><dc:format>image/svg+xml</dc:format><dc:type
           rdf:resource="http://purl.org/dc/dcmitype/StillImage" /><dc:title></dc:title></cc:Work></rdf:RDF></metadata><defs
     id="defs3008" /><sodipodi:namedview
     pagecolor="#ffffff"
     bordercolor="#666666"
     borderopacity="1"
     objecttolerance="10"
     gridtolerance="10"
     guidetolerance="10"
     inkscape:pageopacity="0"
     inkscape:pageshadow="2"
     inkscape:window-width="1920"
     inkscape:window-height="1035"
     id="namedview3006"
     showgrid="false"
     fit-margin-top="0"
     fit-margin-left="0"
     fit-margin-right="0"
     fit-margin-bottom="0"
     inkscape:zoom="2.9519512"
     inkscape:cx="185.14051"
     inkscape:cy="87.061065"
     inkscape:window-x="-2"
     inkscape:window-y="22"
     inkscape:window-maximized="1"
     inkscape:current-layer="g3012" /><g
     id="g3012"
     inkscape:groupmode="layer"
     inkscape:label="ink_ext_XXXXXX"
     transform="matrix(1.25,0,0,-1.25,-61.11575,143.37625)"><g
       id="g3014"
       transform="scale(0.1,0.1)"><path
         d="m 907.77,424.641 c -176.657,0 -319.84,143.211 -319.84,319.828 0,176.66 143.183,319.861 319.84,319.861 176.62,0 319.84,-143.201 319.84,-319.861 0,-176.617 -143.22,-319.828 -319.84,-319.828 z m 0,717.369 c -219.586,0 -397.536,-177.951 -397.536,-397.541 0,-219.547 177.95,-397.52 397.536,-397.52 219.53,0 397.52,177.973 397.52,397.52 0,219.59 -177.99,397.541 -397.52,397.541"
         style="fill:#f57c15;fill-opacity:1;fill-rule:nonzero;stroke:none"
         id="path3016"
         inkscape:connector-curvature="0" /><path
         d="m 907.77,424.641 c -176.657,0 -319.84,143.211 -319.84,319.828 0,176.66 143.183,319.861 319.84,319.861 176.62,0 319.84,-143.201 319.84,-319.861 0,-176.617 -143.22,-319.828 -319.84,-319.828 z m 0,717.369 c -219.586,0 -397.536,-177.951 -397.536,-397.541 0,-219.547 177.95,-397.52 397.536,-397.52 219.53,0 397.52,177.973 397.52,397.52 0,219.59 -177.99,397.541 -397.52,397.541 z"
         style="fill:none;stroke:#100f0d;stroke-width:10;stroke-linecap:butt;stroke-linejoin:miter;stroke-miterlimit:4;stroke-opacity:1;stroke-dasharray:none"
         id="path3018"
         inkscape:connector-curvature="0" /><path
         d="m 1185.58,653.199 c 0.22,0.582 0.35,1.172 0.53,1.723 -6.25,-7.82 -16.11,-6.473 -25.67,-3.871 -24.57,6.64 -23.43,5.121 -77.3,31.519 -59.77,29.321 -97.656,51.489 -97.656,51.489 0,0 17.886,29.613 39.826,60.351 28.96,40.551 66.33,91.641 83.85,110.469 19.06,20.473 32.85,12.383 40.6,3.121 l 0.25,0.238 c 31.65,-46.718 50.08,-103.09 50.08,-163.769 0,-31.231 -4.9,-61.309 -13.98,-89.547 0,0.039 0.04,0.039 0.04,0.078 l -0.57,-1.801 z m -46.41,-88.359 1.55,2.93 C 1087.3,497.422 1002.79,452.031 907.652,452.031 l -0.078,-0.16 c -7.969,4 -9.59,13.238 -10.058,22.539 -1.25,25.41 -2.364,23.871 6.113,83.262 9.414,65.898 18.809,108.769 18.809,108.769 0,0 33.652,-7.832 69.687,-19.222 47.535,-15.02 107.655,-34.739 130.995,-45.617 24.63,-11.454 22.05,-26.532 16.05,-36.762 z M 816.152,984.961 c -14.023,25.309 -2.812,35.779 8.575,40.039 -0.098,-0.04 -0.176,-0.04 -0.293,-0.08 l 1.093,0.39 c -0.254,-0.12 -0.547,-0.2 -0.8,-0.31 26.308,7.77 54.117,11.93 82.925,11.93 58.868,0 113.648,-17.38 159.548,-47.289 l 0.74,-0.27 c 18.15,-10.473 12.78,-22.91 5.49,-34.101 -13.9,-21.329 -12.13,-20.68 -53.86,-63.75 -46.351,-47.809 -79.164,-76.95 -79.164,-76.95 0,0 -22.617,26.129 -45.078,56.52 -29.629,40.039 -66.656,91.371 -79.176,113.871 z M 781.934,772.531 C 734.688,756.73 674.453,737.379 649.18,732.422 625.605,727.809 617.578,738 615.215,748.57 l 0.098,3.61 c 2.402,93.441 47.128,174.851 117.402,226.679 l 1.484,1.141 c 9.492,2.359 16.582,-4.461 22.715,-12.07 15.957,-19.809 15.938,-17.899 44.004,-70.942 31.133,-58.867 48.711,-99.058 48.711,-99.058 0,0 -31.816,-13.442 -67.695,-25.399 z m 58.769,-277.383 c -4.18,-34.367 -27.617,-28.546 -38.437,-23.867 l 8.066,-2.691 c -82.207,29.019 -147.559,93.711 -177.461,175.512 l 1.563,-4.5 c -8.555,19.109 3.086,26.019 15.586,30.789 23.789,9.058 21.953,9.609 81.054,19.918 65.586,11.441 109.297,15.703 109.297,15.703 0,0 2.93,-34.41 3.242,-72.192 0.43,-49.84 0.196,-113.121 -2.91,-138.672 z m 66.949,617.662 c -203.414,0 -368.316,-164.919 -368.316,-368.341 0,-203.418 164.902,-368.297 368.316,-368.297 203.418,0 368.318,164.879 368.318,368.297 0,203.422 -164.9,368.341 -368.318,368.341"
         style="fill:#100f0d;fill-opacity:1;fill-rule:nonzero;stroke:none"
         id="path3020"
         inkscape:connector-curvature="0" /><path
         d="m 929.742,744.469 c 0,-12.129 -9.844,-21.969 -21.972,-21.969 -12.149,0 -21.993,9.84 -21.993,21.969 0,12.172 9.844,22.011 21.993,22.011 12.128,0 21.972,-9.839 21.972,-22.011 z"
         style="fill:none;stroke:#f57c15;stroke-width:10;stroke-linecap:butt;stroke-linejoin:miter;stroke-miterlimit:4;stroke-opacity:1;stroke-dasharray:none"
         id="path3022"
         inkscape:connector-curvature="0" /><path
         d="m 920.953,744.469 c 0,-7.289 -5.898,-13.188 -13.183,-13.188 -7.305,0 -13.204,5.899 -13.204,13.188 0,7.281 5.899,13.179 13.204,13.179 7.285,0 13.183,-5.898 13.183,-13.179"
         style="fill:#f57c15;fill-opacity:1;fill-rule:nonzero;stroke:none"
         id="path3024"
         inkscape:connector-curvature="0" /><path
         d="m 769.707,461.988 -5.879,2.973 181.5,362.18 5.879,-3 -181.5,-362.153"
         style="fill:#f57c15;fill-opacity:1;fill-rule:nonzero;stroke:none"
         id="path3026"
         inkscape:connector-curvature="0" /><path
         d="m 910.328,740 151.992,-110.941 50.96,-13.477 1.46,2.348 -33.96,40.308 -173.128,83.672 2.676,-1.91"
         style="fill:#f57c15;fill-opacity:1;fill-rule:nonzero;stroke:none"
         id="path3028"
         inkscape:connector-curvature="0" /><path
         d="m 909.938,743.039 106.542,65.16 21.17,27.852 -1.05,1.48 -33.32,-10.621 -95.178,-85 1.836,1.129"
         style="fill:#f57c15;fill-opacity:1;fill-rule:nonzero;stroke:none"
         id="path3030"
         inkscape:connector-curvature="0" /><path
         d="m 932.027,776.832 -8.964,-2.07 -4.493,8.75 34.375,69.097 13.477,-6.679 -34.395,-69.098"
         style="fill:#f57c15;fill-opacity:1;fill-rule:nonzero;stroke:none"
         id="path3032"
         inkscape:connector-curvature="0" /><path
         d="m 3554.36,868.711 c 0,-13.66 8.9,-23.09 26.68,-28.25 17.77,-5.191 48.67,-10.313 92.69,-15.371 43.98,-5.059 77.54,-10.82 100.59,-17.238 76.4,-22.153 114.61,-65.454 114.61,-129.891 0,-6.832 -0.9,-17.07 -2.66,-30.742 -19.3,-139.84 -120.94,-213.59 -304.92,-221.25 -9.89,-0.821 -24.26,-1.25 -43.13,-1.25 -61.66,0 -114.63,5.082 -158.84,15.242 -44.26,10.148 -66.37,16.91 -66.37,20.23 l 0,149.278 c 12.97,-10.981 36.83,-24.899 71.64,-41.758 34.76,-16.871 77.85,-25.922 129.22,-27.172 54.67,0 94.98,5.551 120.99,16.602 26.02,11.078 41.02,29.769 44.96,56.058 0,23.59 -9.14,40.473 -27.34,50.582 -18.2,10.16 -41.72,16.918 -70.47,20.36 -28.75,3.39 -63.1,7.3 -103.03,11.64 -41.05,7.028 -72.93,18.86 -95.66,35.5 -22.73,16.649 -34.1,43.399 -34.1,80.199 0,20.899 4.53,46.329 13.51,76.329 16.92,51.679 47.74,105.781 116.29,134.651 47.5,20 84.52,19.96 148.62,23.28 11.6,0.82 42.61,2.11 64.37,2.11 56.64,0 102.78,-3.79 138.44,-11.45 35.66,-7.62 59.65,-14.02 71.95,-19.18 l 13.52,-119.329 c -0.24,0 -10.82,3.75 -31.8,11.187 -20.94,7.442 -47.15,14.242 -78.51,20.332 -31.41,6.09 -67.97,9.18 -109.65,9.18 -90.24,0 -137.42,-23.301 -141.6,-69.879"
         style="fill:#f57c15;fill-opacity:1;fill-rule:nonzero;stroke:none"
         id="path3034"
         inkscape:connector-curvature="0" /><path
         d="m 3554.36,868.711 c 0,-13.66 8.9,-23.09 26.68,-28.25 17.77,-5.191 48.67,-10.313 92.69,-15.371 43.98,-5.059 77.54,-10.82 100.59,-17.238 76.4,-22.153 114.61,-65.454 114.61,-129.891 0,-6.832 -0.9,-17.07 -2.66,-30.742 -19.3,-139.84 -120.94,-213.59 -304.92,-221.25 -9.89,-0.821 -24.26,-1.25 -43.13,-1.25 -61.66,0 -114.63,5.082 -158.84,15.242 -44.26,10.148 -66.37,16.91 -66.37,20.23 l 0,149.278 c 12.97,-10.981 36.83,-24.899 71.64,-41.758 34.76,-16.871 77.85,-25.922 129.22,-27.172 54.67,0 94.98,5.551 120.99,16.602 26.02,11.078 41.02,29.769 44.96,56.058 0,23.59 -9.14,40.473 -27.34,50.582 -18.2,10.16 -41.72,16.918 -70.47,20.36 -28.75,3.39 -63.1,7.3 -103.03,11.64 -41.05,7.028 -72.93,18.86 -95.66,35.5 -22.73,16.649 -34.1,43.399 -34.1,80.199 0,20.899 4.53,46.329 13.51,76.329 16.92,51.679 47.74,105.781 116.29,134.651 47.5,20 84.52,19.96 148.62,23.28 11.6,0.82 42.61,2.11 64.37,2.11 56.64,0 102.78,-3.79 138.44,-11.45 35.66,-7.62 59.65,-14.02 71.95,-19.18 l 13.52,-119.329 c -0.24,0 -10.82,3.75 -31.8,11.187 -20.94,7.442 -47.15,14.242 -78.51,20.332 -31.41,6.09 -67.97,9.18 -109.65,9.18 -90.24,0 -137.42,-23.301 -141.6,-69.879 z"
         style="fill:none;stroke:#131110;stroke-width:40;stroke-linecap:butt;stroke-linejoin:miter;stroke-miterlimit:10;stroke-opacity:1;stroke-dasharray:none"
         id="path3036"
         inkscape:connector-curvature="0" /><path
         d="m 3111.02,936.09 -167.27,0 18.75,99.04 532.77,0 -18.75,-99.04 -167.3,0 -91.84,-493.668 -198.24,0 91.88,493.668"
         style="fill:#f57c15;fill-opacity:1;fill-rule:nonzero;stroke:none"
         id="path3038"
         inkscape:connector-curvature="0" /><path
         d="m 3111.02,936.09 -167.27,0 18.75,99.04 532.77,0 -18.75,-99.04 -167.3,0 -91.84,-493.668 -198.24,0 91.88,493.668 z"
         style="fill:none;stroke:#131110;stroke-width:40;stroke-linecap:butt;stroke-linejoin:miter;stroke-miterlimit:10;stroke-opacity:1;stroke-dasharray:none"
         id="path3040"
         inkscape:connector-curvature="0" /><path
         d="m 2653.98,936.09 -167.28,0 18.75,99.04 532.79,0 -18.75,-99.04 -167.3,0 -91.84,-493.668 -198.26,0 91.89,493.668"
         style="fill:#f57c15;fill-opacity:1;fill-rule:nonzero;stroke:none"
         id="path3042"
         inkscape:connector-curvature="0" /><path
         d="m 2653.98,936.09 -167.28,0 18.75,99.04 532.79,0 -18.75,-99.04 -167.3,0 -91.84,-493.668 -198.26,0 91.89,493.668 z"
         style="fill:none;stroke:#131110;stroke-width:40;stroke-linecap:butt;stroke-linejoin:miter;stroke-miterlimit:10;stroke-opacity:1;stroke-dasharray:none"
         id="path3044"
         inkscape:connector-curvature="0" /><path
         d="M 2372.82,633.059 2335.28,815 2227.27,633.059 l 145.55,0 z M 2166.68,530 l -51.36,-87.578 -142.92,0 345.44,592.708 179.12,0 128.08,-592.708 -210.41,0 -18.77,87.578 -229.18,0"
         style="fill:#f57c15;fill-opacity:1;fill-rule:nonzero;stroke:none"
         id="path3046"
         inkscape:connector-curvature="0" /><path
         d="M 2372.82,633.059 2335.28,815 2227.27,633.059 l 145.55,0 z M 2166.68,530 l -51.36,-87.578 -142.92,0 345.44,592.708 179.12,0 128.08,-592.708 -210.41,0 -18.77,87.578 -229.18,0 z"
         style="fill:none;stroke:#131110;stroke-width:40;stroke-linecap:butt;stroke-linejoin:miter;stroke-miterlimit:10;stroke-opacity:1;stroke-dasharray:none"
         id="path3048"
         inkscape:connector-curvature="0" /><path
         d="m 1900.05,783.32 -212.07,-362.621 -95.48,360.153 -63.56,-338.43 -144.22,0 110.65,592.708 236.09,0 52.34,-236.579 148.52,236.579 214.36,0 -110.64,-592.708 -199.54,0 63.55,340.898"
         style="fill:#f57c15;fill-opacity:1;fill-rule:nonzero;stroke:none"
         id="path3050"
         inkscape:connector-curvature="0" /><path
         d="m 1900.05,783.32 -212.07,-362.621 -95.48,360.153 -63.56,-338.43 -144.22,0 110.65,592.708 236.09,0 52.34,-236.579 148.52,236.579 214.36,0 -110.64,-592.708 -199.54,0 63.55,340.898 z"
         style="fill:none;stroke:#131110;stroke-width:40;stroke-linecap:butt;stroke-linejoin:miter;stroke-miterlimit:10;stroke-opacity:1;stroke-dasharray:none"
         id="path3052"
         inkscape:connector-curvature="0" /><path
         d="m 641.855,154.371 -48.007,-87.0312 -21.602,86.4412 -14.375,-81.2107 -32.637,0 25.02,142.2307 53.437,0 11.856,-56.762 33.594,56.762 48.515,0 -25.039,-142.2307 -45.156,0 14.394,81.8007"
         style="fill:#f57c15;fill-opacity:1;fill-rule:nonzero;stroke:none"
         id="path3054"
         inkscape:connector-curvature="0" /><path
         d="m 641.855,154.371 -48.007,-87.0312 -21.602,86.4412 -14.375,-81.2107 -32.637,0 25.02,142.2307 53.437,0 11.856,-56.762 33.594,56.762 48.515,0 -25.039,-142.2307 -45.156,0 14.394,81.8007 z"
         style="fill:none;stroke:#241d10;stroke-width:10;stroke-linecap:butt;stroke-linejoin:round;stroke-miterlimit:10;stroke-opacity:1;stroke-dasharray:none"
         id="path3056"
         inkscape:connector-curvature="0" /><path
         d="m 762.637,214.801 -25.039,-142.2307 -44.864,0 25.039,142.2307 44.864,0"
         style="fill:#f57c15;fill-opacity:1;fill-rule:nonzero;stroke:none"
         id="path3058"
         inkscape:connector-curvature="0" /><path
         d="m 762.637,214.801 -25.039,-142.2307 -44.864,0 25.039,142.2307 44.864,0 z"
         style="fill:none;stroke:#241d10;stroke-width:10;stroke-linecap:butt;stroke-linejoin:round;stroke-miterlimit:10;stroke-opacity:1;stroke-dasharray:none"
         id="path3060"
         inkscape:connector-curvature="0" /><path
         d="m 862.477,143.98 c 1.25,6.372 1.875,12.5 1.875,18.36 0,19.14 -8.161,28.711 -24.45,28.711 l -19.511,0 -16.465,-94.7307 18.242,0 c 21.465,0 34.902,15.8987 40.309,47.6597 z m -10.055,70.821 c 15.211,0 26.48,-4.34 33.824,-13.071 7.363,-8.71 11.035,-20.761 11.035,-36.109 0,-7.383 -0.722,-14.609 -2.148,-21.68 -2.735,-15.703 -7.227,-28.871 -13.457,-39.492 -6.231,-10.6287 -14.082,-18.5974 -23.551,-23.9099 -9.473,-5.3086 -20.332,-7.9688 -32.598,-7.9688 l -70.781,0 25.039,142.2307 72.637,0"
         style="fill:#f57c15;fill-opacity:1;fill-rule:nonzero;stroke:none"
         id="path3062"
         inkscape:connector-curvature="0" /><path
         d="m 862.477,143.98 c 1.25,6.372 1.875,12.5 1.875,18.36 0,19.14 -8.161,28.711 -24.45,28.711 l -19.511,0 -16.465,-94.7307 18.242,0 c 21.465,0 34.902,15.8987 40.309,47.6597 z m -10.055,70.821 c 15.211,0 26.48,-4.34 33.824,-13.071 7.363,-8.71 11.035,-20.761 11.035,-36.109 0,-7.383 -0.722,-14.609 -2.148,-21.68 -2.735,-15.703 -7.227,-28.871 -13.457,-39.492 -6.231,-10.6287 -14.082,-18.5974 -23.551,-23.9099 -9.473,-5.3086 -20.332,-7.9688 -32.598,-7.9688 l -70.781,0 25.039,142.2307 72.637,0 z"
         style="fill:none;stroke:#241d10;stroke-width:10;stroke-linecap:butt;stroke-linejoin:round;stroke-miterlimit:10;stroke-opacity:1;stroke-dasharray:none"
         id="path3064"
         inkscape:connector-curvature="0" /><path
         d="m 1048.33,118.32 -8.51,43.668 -24.43,-43.668 32.94,0 z m -46.66,-24.7302 -11.615,-21.0195 -32.344,0 78.159,142.2307 40.55,0 28.99,-142.2307 -47.62,0 -4.26,21.0195 -51.86,0"
         style="fill:#f57c15;fill-opacity:1;fill-rule:nonzero;stroke:none"
         id="path3066"
         inkscape:connector-curvature="0" /><path
         d="m 1048.33,118.32 -8.51,43.668 -24.43,-43.668 32.94,0 z m -46.66,-24.7302 -11.615,-21.0195 -32.344,0 78.159,142.2307 40.55,0 28.99,-142.2307 -47.62,0 -4.26,21.0195 -51.86,0 z"
         style="fill:none;stroke:#241d10;stroke-width:10;stroke-linecap:butt;stroke-linejoin:round;stroke-miterlimit:10;stroke-opacity:1;stroke-dasharray:none"
         id="path3068"
         inkscape:connector-curvature="0" /><path
         d="M 1237.01,154.371 1189,67.3398 l -21.6,86.4412 -14.38,-81.2107 -32.63,0 25.02,142.2307 53.43,0 11.86,-56.762 33.59,56.762 48.52,0 -25.04,-142.2307 -45.16,0 14.4,81.8007"
         style="fill:#f57c15;fill-opacity:1;fill-rule:nonzero;stroke:none"
         id="path3070"
         inkscape:connector-curvature="0" /><path
         d="M 1237.01,154.371 1189,67.3398 l -21.6,86.4412 -14.38,-81.2107 -32.63,0 25.02,142.2307 53.43,0 11.86,-56.762 33.59,56.762 48.52,0 -25.04,-142.2307 -45.16,0 14.4,81.8007 z"
         style="fill:none;stroke:#241d10;stroke-width:10;stroke-linecap:butt;stroke-linejoin:round;stroke-miterlimit:10;stroke-opacity:1;stroke-dasharray:none"
         id="path3072"
         inkscape:connector-curvature="0" /><path
         d="m 1314.19,214.801 103.44,0 -4.26,-24.141 -58.63,0 -5.45,-32.031 47.91,0 -4.31,-24.141 -47.91,0 -6.72,-37.7771 59.55,0 -4.26,-24.1406 -104.39,0 25.03,142.2307"
         style="fill:#f57c15;fill-opacity:1;fill-rule:nonzero;stroke:none"
         id="path3074"
         inkscape:connector-curvature="0" /><path
         d="m 1314.19,214.801 103.44,0 -4.26,-24.141 -58.63,0 -5.45,-32.031 47.91,0 -4.31,-24.141 -47.91,0 -6.72,-37.7771 59.55,0 -4.26,-24.1406 -104.39,0 25.03,142.2307 z"
         style="fill:none;stroke:#241d10;stroke-width:10;stroke-linecap:butt;stroke-linejoin:round;stroke-miterlimit:10;stroke-opacity:1;stroke-dasharray:none"
         id="path3076"
         inkscape:connector-curvature="0" /><path
         d="m 1513.22,129.641 27.13,-57.0707 -48.21,-0.3086 -25.33,71.1293 17.35,0 c 4.82,0 9.68,1.757 14.6,5.238 4.93,3.473 8.11,9.351 9.56,17.652 0.58,2.739 0.87,5.321 0.87,7.699 0,11.372 -5.68,17.071 -17.05,17.071 l -17.07,0 -20.78,-118.4807 -44.86,0 25.04,142.2307 77.79,0 c 12.81,0 23.03,-2.699 30.66,-8.11 7.62,-5.41 11.43,-14 11.43,-25.781 0,-3.14 -0.29,-6.699 -0.88,-10.66 -1.64,-9.75 -4.53,-17.461 -8.65,-23.18 -4.12,-5.711 -8.44,-9.75 -12.93,-12.129 -4.49,-2.41 -8.63,-3.851 -12.44,-4.402 -3.81,-0.539 -5.88,-0.859 -6.23,-0.898"
         style="fill:#f57c15;fill-opacity:1;fill-rule:nonzero;stroke:none"
         id="path3078"
         inkscape:connector-curvature="0" /><path
         d="m 1513.22,129.641 27.13,-57.0707 -48.21,-0.3086 -25.33,71.1293 17.35,0 c 4.82,0 9.68,1.757 14.6,5.238 4.93,3.473 8.11,9.351 9.56,17.652 0.58,2.739 0.87,5.321 0.87,7.699 0,11.372 -5.68,17.071 -17.05,17.071 l -17.07,0 -20.78,-118.4807 -44.86,0 25.04,142.2307 77.79,0 c 12.81,0 23.03,-2.699 30.66,-8.11 7.62,-5.41 11.43,-14 11.43,-25.781 0,-3.14 -0.29,-6.699 -0.88,-10.66 -1.64,-9.75 -4.53,-17.461 -8.65,-23.18 -4.12,-5.711 -8.44,-9.75 -12.93,-12.129 -4.49,-2.41 -8.63,-3.851 -12.44,-4.402 -3.81,-0.539 -5.88,-0.859 -6.23,-0.898 z"
         style="fill:none;stroke:#241d10;stroke-width:10;stroke-linecap:butt;stroke-linejoin:round;stroke-miterlimit:10;stroke-opacity:1;stroke-dasharray:none"
         id="path3080"
         inkscape:connector-curvature="0" /><path
         d="m 1621.5,214.801 -25.04,-142.2307 -44.86,0 25.04,142.2307 44.86,0"
         style="fill:#f57c15;fill-opacity:1;fill-rule:nonzero;stroke:none"
         id="path3082"
         inkscape:connector-curvature="0" /><path
         d="m 1621.5,214.801 -25.04,-142.2307 -44.86,0 25.04,142.2307 44.86,0 z"
         style="fill:none;stroke:#241d10;stroke-width:10;stroke-linecap:butt;stroke-linejoin:round;stroke-miterlimit:10;stroke-opacity:1;stroke-dasharray:none"
         id="path3084"
         inkscape:connector-curvature="0" /><path
         d="m 1726.87,75.9102 c -2.64,-1.0313 -7.75,-2.3985 -15.33,-4.0782 -7.62,-1.7031 -17.15,-2.6523 -28.6,-2.9336 -22.2,0 -38.08,4.3008 -47.63,12.8907 -9.55,8.6015 -14.34,21.4099 -14.34,38.4019 0,8.789 1.02,18.239 3.07,28.379 2.22,10.59 5.33,19.981 9.29,28.16 3.99,8.211 9.09,15.301 15.36,21.231 6.25,5.98 13.98,10.711 23.2,14.219 9.2,3.48 20,5.492 32.42,5.98 11.52,0 20.86,-0.66 28.05,-2.031 7.17,-1.367 12.03,-2.539 14.63,-3.481 l 2.46,-30.859 c -2.48,1.699 -7.19,3.832 -14.08,6.41 -6.92,2.602 -15.55,3.942 -25.94,4.02 -9.2,0 -16.6,-2.008 -22.25,-6.047 -5.64,-4.07 -9.78,-9.184 -12.4,-15.352 -2.64,-6.199 -4.73,-13.601 -6.27,-22.25 -1.78,-9.941 -2.68,-17.988 -2.68,-24.14 0,-18.828 8.13,-28.5003 24.38,-28.9886 9.43,0 17.48,0.75 24.14,2.2305 6.64,1.5078 11.97,3.1801 15.98,5.0391 4,1.859 5.9,2.789 5.7,2.789 l -9.16,-29.5898"
         style="fill:#f57c15;fill-opacity:1;fill-rule:nonzero;stroke:none"
         id="path3086"
         inkscape:connector-curvature="0" /><path
         d="m 1726.87,75.9102 c -2.64,-1.0313 -7.75,-2.3985 -15.33,-4.0782 -7.62,-1.7031 -17.15,-2.6523 -28.6,-2.9336 -22.2,0 -38.08,4.3008 -47.63,12.8907 -9.55,8.6015 -14.34,21.4099 -14.34,38.4019 0,8.789 1.02,18.239 3.07,28.379 2.22,10.59 5.33,19.981 9.29,28.16 3.99,8.211 9.09,15.301 15.36,21.231 6.25,5.98 13.98,10.711 23.2,14.219 9.2,3.48 20,5.492 32.42,5.98 11.52,0 20.86,-0.66 28.05,-2.031 7.17,-1.367 12.03,-2.539 14.63,-3.481 l 2.46,-30.859 c -2.48,1.699 -7.19,3.832 -14.08,6.41 -6.92,2.602 -15.55,3.942 -25.94,4.02 -9.2,0 -16.6,-2.008 -22.25,-6.047 -5.64,-4.07 -9.78,-9.184 -12.4,-15.352 -2.64,-6.199 -4.73,-13.601 -6.27,-22.25 -1.78,-9.941 -2.68,-17.988 -2.68,-24.14 0,-18.828 8.13,-28.5003 24.38,-28.9886 9.43,0 17.48,0.75 24.14,2.2305 6.64,1.5078 11.97,3.1801 15.98,5.0391 4,1.859 5.9,2.789 5.7,2.789 l -9.16,-29.5898 z"
         style="fill:none;stroke:#241d10;stroke-width:10;stroke-linecap:butt;stroke-linejoin:round;stroke-miterlimit:10;stroke-opacity:1;stroke-dasharray:none"
         id="path3088"
         inkscape:connector-curvature="0" /><path
         d="m 1830.29,118.32 -8.5,43.668 -24.43,-43.668 32.93,0 z m -46.64,-24.7302 -11.62,-21.0195 -32.35,0 78.17,142.2307 40.52,0 29.01,-142.2307 -47.62,0 -4.26,21.0195 -51.85,0"
         style="fill:#f57c15;fill-opacity:1;fill-rule:nonzero;stroke:none"
         id="path3090"
         inkscape:connector-curvature="0" /><path
         d="m 1830.29,118.32 -8.5,43.668 -24.43,-43.668 32.93,0 z m -46.64,-24.7302 -11.62,-21.0195 -32.35,0 78.17,142.2307 40.52,0 29.01,-142.2307 -47.62,0 -4.26,21.0195 -51.85,0 z"
         style="fill:none;stroke:#241d10;stroke-width:10;stroke-linecap:butt;stroke-linejoin:round;stroke-miterlimit:10;stroke-opacity:1;stroke-dasharray:none"
         id="path3092"
         inkscape:connector-curvature="0" /><path
         d="m 2019.28,191.051 -37.88,0 4.26,23.75 120.58,0 -4.26,-23.75 -37.85,0 -20.79,-118.4807 -44.87,0 20.81,118.4807"
         style="fill:#f57c15;fill-opacity:1;fill-rule:nonzero;stroke:none"
         id="path3094"
         inkscape:connector-curvature="0" /><path
         d="m 2019.28,191.051 -37.88,0 4.26,23.75 120.58,0 -4.26,-23.75 -37.85,0 -20.79,-118.4807 -44.87,0 20.81,118.4807 z"
         style="fill:none;stroke:#241d10;stroke-width:10;stroke-linecap:butt;stroke-linejoin:round;stroke-miterlimit:10;stroke-opacity:1;stroke-dasharray:none"
         id="path3096"
         inkscape:connector-curvature="0" /><path
         d="m 2164.5,214.801 -25.04,-142.2307 -44.87,0 25.04,142.2307 44.87,0"
         style="fill:#f57c15;fill-opacity:1;fill-rule:nonzero;stroke:none"
         id="path3098"
         inkscape:connector-curvature="0" /><path
         d="m 2164.5,214.801 -25.04,-142.2307 -44.87,0 25.04,142.2307 44.87,0 z"
         style="fill:none;stroke:#241d10;stroke-width:10;stroke-linecap:butt;stroke-linejoin:round;stroke-miterlimit:10;stroke-opacity:1;stroke-dasharray:none"
         id="path3100"
         inkscape:connector-curvature="0" /><path
         d="m 2275.38,154.371 -47.99,-87.0312 -21.6,86.4412 -14.4,-81.2107 -32.62,0 25.02,142.2307 53.44,0 11.84,-56.762 33.61,56.762 48.52,0 -25.04,-142.2307 -45.16,0 14.38,81.8007"
         style="fill:#f57c15;fill-opacity:1;fill-rule:nonzero;stroke:none"
         id="path3102"
         inkscape:connector-curvature="0" /><path
         d="m 2275.38,154.371 -47.99,-87.0312 -21.6,86.4412 -14.4,-81.2107 -32.62,0 25.02,142.2307 53.44,0 11.84,-56.762 33.61,56.762 48.52,0 -25.04,-142.2307 -45.16,0 14.38,81.8007 z"
         style="fill:none;stroke:#241d10;stroke-width:10;stroke-linecap:butt;stroke-linejoin:round;stroke-miterlimit:10;stroke-opacity:1;stroke-dasharray:none"
         id="path3104"
         inkscape:connector-curvature="0" /><path
         d="m 2352.56,214.801 103.44,0 -4.26,-24.141 -58.63,0 -5.43,-32.031 47.89,0 -4.3,-24.141 -47.93,0 -6.69,-37.7771 59.53,0 -4.24,-24.1406 -104.42,0 25.04,142.2307"
         style="fill:#f57c15;fill-opacity:1;fill-rule:nonzero;stroke:none"
         id="path3106"
         inkscape:connector-curvature="0" /><path
         d="m 2352.56,214.801 103.44,0 -4.26,-24.141 -58.63,0 -5.43,-32.031 47.89,0 -4.3,-24.141 -47.93,0 -6.69,-37.7771 59.53,0 -4.24,-24.1406 -104.42,0 25.04,142.2307 z"
         style="fill:none;stroke:#241d10;stroke-width:10;stroke-linecap:butt;stroke-linejoin:round;stroke-miterlimit:10;stroke-opacity:1;stroke-dasharray:none"
         id="path3108"
         inkscape:connector-curvature="0" /><path
         d="m 2564.71,191.051 -37.85,0 4.25,23.75 120.57,0 -4.26,-23.75 -37.85,0 -20.8,-118.4807 -44.84,0 20.78,118.4807"
         style="fill:#f57c15;fill-opacity:1;fill-rule:nonzero;stroke:none"
         id="path3110"
         inkscape:connector-curvature="0" /><path
         d="m 2564.71,191.051 -37.85,0 4.25,23.75 120.57,0 -4.26,-23.75 -37.85,0 -20.8,-118.4807 -44.84,0 20.78,118.4807 z"
         style="fill:none;stroke:#241d10;stroke-width:10;stroke-linecap:butt;stroke-linejoin:round;stroke-miterlimit:10;stroke-opacity:1;stroke-dasharray:none"
         id="path3112"
         inkscape:connector-curvature="0" /><path
         d="m 2745.74,129.641 27.11,-57.0707 -48.2,-0.3086 -25.35,71.1293 17.38,0 c 4.8,0 9.69,1.757 14.57,5.238 4.92,3.473 8.13,9.351 9.57,17.652 0.59,2.739 0.86,5.321 0.86,7.699 0,11.372 -5.66,17.071 -17.03,17.071 l -17.07,0 -20.78,-118.4807 -44.89,0 25.04,142.2307 77.82,0 c 12.81,0 23,-2.699 30.66,-8.11 7.62,-5.41 11.45,-14 11.45,-25.781 0,-3.14 -0.32,-6.699 -0.9,-10.66 -1.64,-9.75 -4.53,-17.461 -8.68,-23.18 -4.1,-5.711 -8.43,-9.75 -12.92,-12.129 -4.5,-2.41 -8.64,-3.851 -12.43,-4.402 -3.82,-0.539 -5.9,-0.859 -6.21,-0.898"
         style="fill:#f57c15;fill-opacity:1;fill-rule:nonzero;stroke:none"
         id="path3114"
         inkscape:connector-curvature="0" /><path
         d="m 2745.74,129.641 27.11,-57.0707 -48.2,-0.3086 -25.35,71.1293 17.38,0 c 4.8,0 9.69,1.757 14.57,5.238 4.92,3.473 8.13,9.351 9.57,17.652 0.59,2.739 0.86,5.321 0.86,7.699 0,11.372 -5.66,17.071 -17.03,17.071 l -17.07,0 -20.78,-118.4807 -44.89,0 25.04,142.2307 77.82,0 c 12.81,0 23,-2.699 30.66,-8.11 7.62,-5.41 11.45,-14 11.45,-25.781 0,-3.14 -0.32,-6.699 -0.9,-10.66 -1.64,-9.75 -4.53,-17.461 -8.68,-23.18 -4.1,-5.711 -8.43,-9.75 -12.92,-12.129 -4.5,-2.41 -8.64,-3.851 -12.43,-4.402 -3.82,-0.539 -5.9,-0.859 -6.21,-0.898 z"
         style="fill:none;stroke:#241d10;stroke-width:10;stroke-linecap:butt;stroke-linejoin:round;stroke-miterlimit:10;stroke-opacity:1;stroke-dasharray:none"
         id="path3116"
         inkscape:connector-curvature="0" /><path
         d="m 2853.98,214.801 -25.03,-142.2307 -44.85,0 25.04,142.2307 44.84,0"
         style="fill:#f57c15;fill-opacity:1;fill-rule:nonzero;stroke:none"
         id="path3118"
         inkscape:connector-curvature="0" /><path
         d="m 2853.98,214.801 -25.03,-142.2307 -44.85,0 25.04,142.2307 44.84,0 z"
         style="fill:none;stroke:#241d10;stroke-width:10;stroke-linecap:butt;stroke-linejoin:round;stroke-miterlimit:10;stroke-opacity:1;stroke-dasharray:none"
         id="path3120"
         inkscape:connector-curvature="0" /><path
         d="m 2929.69,118.32 -8.48,43.668 -24.45,-43.668 32.93,0 z m -46.64,-24.7302 -11.6,-21.0195 -32.35,0 78.17,142.2307 40.54,0 28.99,-142.2307 -47.62,0 -4.26,21.0195 -51.87,0"
         style="fill:#f57c15;fill-opacity:1;fill-rule:nonzero;stroke:none"
         id="path3122"
         inkscape:connector-curvature="0" /><path
         d="m 2929.69,118.32 -8.48,43.668 -24.45,-43.668 32.93,0 z m -46.64,-24.7302 -11.6,-21.0195 -32.35,0 78.17,142.2307 40.54,0 28.99,-142.2307 -47.62,0 -4.26,21.0195 -51.87,0 z"
         style="fill:none;stroke:#241d10;stroke-width:10;stroke-linecap:butt;stroke-linejoin:round;stroke-miterlimit:10;stroke-opacity:1;stroke-dasharray:none"
         id="path3124"
         inkscape:connector-curvature="0" /><path
         d="m 3049.41,96.3203 59.5,0 -4.3,-23.75 -104.34,0 25.04,142.2307 44.81,0 -20.71,-118.4807"
         style="fill:#f57c15;fill-opacity:1;fill-rule:nonzero;stroke:none"
         id="path3126"
         inkscape:connector-curvature="0" /><path
         d="m 3049.41,96.3203 59.5,0 -4.3,-23.75 -104.34,0 25.04,142.2307 44.81,0 -20.71,-118.4807 z"
         style="fill:none;stroke:#241d10;stroke-width:10;stroke-linecap:butt;stroke-linejoin:round;stroke-miterlimit:10;stroke-opacity:1;stroke-dasharray:none"
         id="path3128"
         inkscape:connector-curvature="0" /><path
         d="m 3243.79,174.879 c 0,-3.277 2.03,-5.547 6.05,-6.797 4.03,-1.23 11.02,-2.461 20.98,-3.672 9.96,-1.211 17.54,-2.601 22.73,-4.14 17.31,-5.309 25.94,-15.7 25.94,-31.168 0,-1.641 -0.19,-4.102 -0.58,-7.391 -4.38,-33.5508 -27.39,-51.2501 -68.99,-53.0821 -2.26,-0.2187 -5.51,-0.3086 -9.76,-0.3086 -13.99,0 -25.94,1.211 -35.98,3.668 -10,2.4219 -15,4.043 -15,4.8437 l 0,35.816 c 2.93,-2.628 8.32,-5.968 16.21,-10.019 7.85,-4.0392 17.62,-6.2306 29.26,-6.5196 12.34,0 21.48,1.332 27.38,3.9806 5.86,2.68 9.26,7.148 10.16,13.461 0,5.66 -2.07,9.711 -6.17,12.148 -4.14,2.422 -9.46,4.063 -15.98,4.883 -6.49,0.816 -14.26,1.758 -23.32,2.77 -9.26,1.699 -16.49,4.539 -21.64,8.539 -5.12,4 -7.7,10.41 -7.7,19.238 0,5.019 1.02,11.133 3.05,18.32 3.83,12.422 13.28,22.563 28.4,30.473 8.67,4.289 20.27,6.867 34.8,7.648 2.62,0.2 6.41,0.301 11.33,0.301 12.81,0 23.24,-0.922 31.33,-2.762 8.05,-1.828 13.48,-3.359 16.29,-4.609 l 3.05,-28.629 c -0.08,0 -2.47,0.899 -7.19,2.699 -4.77,1.789 -10.67,3.391 -17.78,4.879 -7.11,1.442 -15.39,2.192 -24.84,2.192 -20.39,0 -31.09,-5.59 -32.03,-16.762"
         style="fill:#f57c15;fill-opacity:1;fill-rule:nonzero;stroke:none"
         id="path3130"
         inkscape:connector-curvature="0" /><path
         d="m 3243.79,174.879 c 0,-3.277 2.03,-5.547 6.05,-6.797 4.03,-1.23 11.02,-2.461 20.98,-3.672 9.96,-1.211 17.54,-2.601 22.73,-4.14 17.31,-5.309 25.94,-15.7 25.94,-31.168 0,-1.641 -0.19,-4.102 -0.58,-7.391 -4.38,-33.5508 -27.39,-51.2501 -68.99,-53.0821 -2.26,-0.2187 -5.51,-0.3086 -9.76,-0.3086 -13.99,0 -25.94,1.211 -35.98,3.668 -10,2.4219 -15,4.043 -15,4.8437 l 0,35.816 c 2.93,-2.628 8.32,-5.968 16.21,-10.019 7.85,-4.0392 17.62,-6.2306 29.26,-6.5196 12.34,0 21.48,1.332 27.38,3.9806 5.86,2.68 9.26,7.148 10.16,13.461 0,5.66 -2.07,9.711 -6.17,12.148 -4.14,2.422 -9.46,4.063 -15.98,4.883 -6.49,0.816 -14.26,1.758 -23.32,2.77 -9.26,1.699 -16.49,4.539 -21.64,8.539 -5.12,4 -7.7,10.41 -7.7,19.238 0,5.019 1.02,11.133 3.05,18.32 3.83,12.422 13.28,22.563 28.4,30.473 8.67,4.289 20.27,6.867 34.8,7.648 2.62,0.2 6.41,0.301 11.33,0.301 12.81,0 23.24,-0.922 31.33,-2.762 8.05,-1.828 13.48,-3.359 16.29,-4.609 l 3.05,-28.629 c -0.08,0 -2.47,0.899 -7.19,2.699 -4.77,1.789 -10.67,3.391 -17.78,4.879 -7.11,1.442 -15.39,2.192 -24.84,2.192 -20.39,0 -31.09,-5.59 -32.03,-16.762 z"
         style="fill:none;stroke:#241d10;stroke-width:10;stroke-linecap:butt;stroke-linejoin:round;stroke-miterlimit:10;stroke-opacity:1;stroke-dasharray:none"
         id="path3132"
         inkscape:connector-curvature="0" /><path
         d="m 3354.3,214.801 103.43,0 -4.25,-24.141 -58.64,0 -5.43,-32.031 47.89,0 -4.29,-24.141 -47.93,0 -6.72,-37.7771 59.53,0 -4.22,-24.1406 -104.41,0 25.04,142.2307"
         style="fill:#f57c15;fill-opacity:1;fill-rule:nonzero;stroke:none"
         id="path3134"
         inkscape:connector-curvature="0" /><path
         d="m 3354.3,214.801 103.43,0 -4.25,-24.141 -58.64,0 -5.43,-32.031 47.89,0 -4.29,-24.141 -47.93,0 -6.72,-37.7771 59.53,0 -4.22,-24.1406 -104.41,0 25.04,142.2307 z"
         style="fill:none;stroke:#241d10;stroke-width:10;stroke-linecap:butt;stroke-linejoin:round;stroke-miterlimit:10;stroke-opacity:1;stroke-dasharray:none"
         id="path3136"
         inkscape:connector-curvature="0" /><path
         d="m 3553.3,129.641 27.15,-57.0707 -48.24,-0.3086 -25.3,71.1293 17.35,0 c 4.84,0 9.67,1.757 14.59,5.238 4.92,3.473 8.08,9.351 9.53,17.652 0.62,2.739 0.9,5.321 0.9,7.699 0,11.372 -5.67,17.071 -17.07,17.071 l -17.01,0 -20.82,-118.4807 -44.85,0 25.04,142.2307 77.75,0 c 12.86,0 23.05,-2.699 30.67,-8.11 7.65,-5.41 11.44,-14 11.44,-25.781 0,-3.14 -0.27,-6.699 -0.89,-10.66 -1.65,-9.75 -4.5,-17.461 -8.64,-23.18 -4.1,-5.711 -8.44,-9.75 -12.93,-12.129 -4.49,-2.41 -8.63,-3.851 -12.42,-4.402 -3.83,-0.539 -5.9,-0.859 -6.25,-0.898"
         style="fill:#f57c15;fill-opacity:1;fill-rule:nonzero;stroke:none"
         id="path3138"
         inkscape:connector-curvature="0" /><path
         d="m 3553.3,129.641 27.15,-57.0707 -48.24,-0.3086 -25.3,71.1293 17.35,0 c 4.84,0 9.67,1.757 14.59,5.238 4.92,3.473 8.08,9.351 9.53,17.652 0.62,2.739 0.9,5.321 0.9,7.699 0,11.372 -5.67,17.071 -17.07,17.071 l -17.01,0 -20.82,-118.4807 -44.85,0 25.04,142.2307 77.75,0 c 12.86,0 23.05,-2.699 30.67,-8.11 7.65,-5.41 11.44,-14 11.44,-25.781 0,-3.14 -0.27,-6.699 -0.89,-10.66 -1.65,-9.75 -4.5,-17.461 -8.64,-23.18 -4.1,-5.711 -8.44,-9.75 -12.93,-12.129 -4.49,-2.41 -8.63,-3.851 -12.42,-4.402 -3.83,-0.539 -5.9,-0.859 -6.25,-0.898 z"
         style="fill:none;stroke:#241d10;stroke-width:10;stroke-linecap:butt;stroke-linejoin:round;stroke-miterlimit:10;stroke-opacity:1;stroke-dasharray:none"
         id="path3140"
         inkscape:connector-curvature="0" /><path
         d="m 3661.58,214.801 -25.04,-142.2307 -44.84,0 25.04,142.2307 44.84,0"
         style="fill:#f57c15;fill-opacity:1;fill-rule:nonzero;stroke:none"
         id="path3142"
         inkscape:connector-curvature="0" /><path
         d="m 3661.58,214.801 -25.04,-142.2307 -44.84,0 25.04,142.2307 44.84,0 z"
         style="fill:none;stroke:#241d10;stroke-width:10;stroke-linecap:butt;stroke-linejoin:round;stroke-miterlimit:10;stroke-opacity:1;stroke-dasharray:none"
         id="path3144"
         inkscape:connector-curvature="0" /><path
         d="m 3680.29,214.801 103.44,0 -4.26,-24.141 -58.63,0 -5.47,-32.031 47.93,0 -4.34,-24.141 -47.89,0 -6.71,-37.7771 59.53,0 -4.22,-24.1406 -104.42,0 25.04,142.2307"
         style="fill:#f57c15;fill-opacity:1;fill-rule:nonzero;stroke:none"
         id="path3146"
         inkscape:connector-curvature="0" /><path
         d="m 3680.29,214.801 103.44,0 -4.26,-24.141 -58.63,0 -5.47,-32.031 47.93,0 -4.34,-24.141 -47.89,0 -6.71,-37.7771 59.53,0 -4.22,-24.1406 -104.42,0 25.04,142.2307 z"
         style="fill:none;stroke:#241d10;stroke-width:10;stroke-linecap:butt;stroke-linejoin:round;stroke-miterlimit:10;stroke-opacity:1;stroke-dasharray:none"
         id="path3148"
         inkscape:connector-curvature="0" /><path
         d="m 3833.18,174.879 c 0,-3.277 2.03,-5.547 6.06,-6.797 4.02,-1.23 11.01,-2.461 20.97,-3.672 9.97,-1.211 17.54,-2.601 22.74,-4.14 17.3,-5.309 25.94,-15.7 25.94,-31.168 0,-1.641 -0.2,-4.102 -0.59,-7.391 -4.37,-33.5508 -27.38,-51.2501 -68.98,-53.0821 -2.27,-0.2187 -5.51,-0.3086 -9.77,-0.3086 -13.98,0 -25.94,1.211 -35.98,3.668 -10,2.4219 -15,4.043 -15,4.8437 l 0,35.816 c 2.93,-2.628 8.32,-5.968 16.22,-10.019 7.85,-4.0392 17.61,-6.2306 29.25,-6.5196 12.35,0 21.49,1.332 27.39,3.9806 5.86,2.68 9.25,7.148 10.15,13.461 0,5.66 -2.07,9.711 -6.17,12.148 -4.14,2.422 -9.45,4.063 -15.98,4.883 -6.48,0.816 -14.25,1.758 -23.32,2.77 -9.25,1.699 -16.48,4.539 -21.64,8.539 -5.11,4 -7.69,10.41 -7.69,19.238 0,5.019 1.01,11.133 3.04,18.32 3.83,12.422 13.29,22.563 28.4,30.473 8.67,4.289 20.28,6.867 34.81,7.648 2.61,0.2 6.4,0.301 11.33,0.301 12.81,0 23.24,-0.922 31.32,-2.762 8.05,-1.828 13.48,-3.359 16.29,-4.609 l 3.05,-28.629 c -0.08,0 -2.46,0.899 -7.19,2.699 -4.76,1.789 -10.66,3.391 -17.77,4.879 -7.11,1.442 -15.39,2.192 -24.85,2.192 -20.39,0 -31.09,-5.59 -32.03,-16.762"
         style="fill:#f57c15;fill-opacity:1;fill-rule:nonzero;stroke:none"
         id="path3150"
         inkscape:connector-curvature="0" /><path
         d="m 3833.18,174.879 c 0,-3.277 2.03,-5.547 6.06,-6.797 4.02,-1.23 11.01,-2.461 20.97,-3.672 9.97,-1.211 17.54,-2.601 22.74,-4.14 17.3,-5.309 25.94,-15.7 25.94,-31.168 0,-1.641 -0.2,-4.102 -0.59,-7.391 -4.37,-33.5508 -27.38,-51.2501 -68.98,-53.0821 -2.27,-0.2187 -5.51,-0.3086 -9.77,-0.3086 -13.98,0 -25.94,1.211 -35.98,3.668 -10,2.4219 -15,4.043 -15,4.8437 l 0,35.816 c 2.93,-2.628 8.32,-5.968 16.22,-10.019 7.85,-4.0392 17.61,-6.2306 29.25,-6.5196 12.35,0 21.49,1.332 27.39,3.9806 5.86,2.68 9.25,7.148 10.15,13.461 0,5.66 -2.07,9.711 -6.17,12.148 -4.14,2.422 -9.45,4.063 -15.98,4.883 -6.48,0.816 -14.25,1.758 -23.32,2.77 -9.25,1.699 -16.48,4.539 -21.64,8.539 -5.11,4 -7.69,10.41 -7.69,19.238 0,5.019 1.01,11.133 3.04,18.32 3.83,12.422 13.29,22.563 28.4,30.473 8.67,4.289 20.28,6.867 34.81,7.648 2.61,0.2 6.4,0.301 11.33,0.301 12.81,0 23.24,-0.922 31.32,-2.762 8.05,-1.828 13.48,-3.359 16.29,-4.609 l 3.05,-28.629 c -0.08,0 -2.46,0.899 -7.19,2.699 -4.76,1.789 -10.66,3.391 -17.77,4.879 -7.11,1.442 -15.39,2.192 -24.85,2.192 -20.39,0 -31.09,-5.59 -32.03,-16.762 z"
         style="fill:none;stroke:#241d10;stroke-width:10;stroke-linecap:butt;stroke-linejoin:round;stroke-miterlimit:10;stroke-opacity:1;stroke-dasharray:none"
         id="path3152"
         inkscape:connector-curvature="0" /><path
         d="M 498.926,10 3940.06,10"
         style="fill:none;stroke:#100f0d;stroke-width:20;stroke-linecap:butt;stroke-linejoin:miter;stroke-miterlimit:10;stroke-opacity:1;stroke-dasharray:none"
         id="path3154"
         inkscape:connector-curvature="0" /><path
         d="m 498.926,280.82 3441.134,0"
         style="fill:none;stroke:#100f0d;stroke-width:20;stroke-linecap:butt;stroke-linejoin:miter;stroke-miterlimit:10;stroke-opacity:1;stroke-dasharray:none"
         id="path3156"
         inkscape:connector-curvature="0" /><path
         d="m 909.594,116.949 54.6797,0 0,26.6328 -54.6797,0 0,-26.6328 z"
         style="fill:#f58113;fill-opacity:1;fill-rule:nonzero;stroke:none"
         id="path3158"
         inkscape:connector-curvature="0" /><path
         d="m 909.594,116.949 54.6797,0 0,26.6328 -54.6797,0 0,-26.6328 z"
         style="fill:none;stroke:#241d10;stroke-width:10;stroke-linecap:butt;stroke-linejoin:miter;stroke-miterlimit:10;stroke-opacity:1;stroke-dasharray:none"
         id="path3160"
         inkscape:connector-curvature="0" /></g></g></svg>